# xmcd
# Copyright (C) 1995-1998 Ti Kan
#
# Track frame offsets:
#       150
#       20004
#       37766
#       60258
#       78231
#       94044
#       110019
#       129295
#       143936
#       154910
#       173021
#
# Disc length: 2530 seconds
#
# Revision: 0
# Processed by: cddbd v1.5.2PL0 Copyright (c) Steve Scherf et al.
# Submitted via: CD-Transfer v1.0
#
DISCID=8009e00b
DTITLE=Vragoloviæ, Ivan - Ivan Vragoloviæ
DYEAR=11
DGENRE=
TTITLE0=Dirty City Roads
TTITLE1=Need Some Money...real Bad
TTITLE2=Big Town Jungle
TTITLE3=Red Hair Devil
TTITLE4=Don't Leave Your Children Alone
TTITLE5=Hey Bill, My Name Is Jill
TTITLE6=Prep Oration For The J. D.
TTITLE7=For The Whiskey And The Beer
TTITLE8=6 O'clock In The Morning
TTITLE9=I Just Want To Be Your Man
TTITLE10=Travelin' Song
EXTD=
EXTT0=
EXTT1=
EXTT2=
EXTT3=
EXTT4=
EXTT5=
EXTT6=
EXTT7=
EXTT8=
EXTT9=
EXTT10=
PLAYORDER=
